<?xml version="1.0" encoding="UTF-8" standalone="no"?>
<!-- Created with Inkscape (http://www.inkscape.org/) -->

<svg
   xmlns:dc="http://purl.org/dc/elements/1.1/"
   xmlns:cc="http://creativecommons.org/ns#"
   xmlns:rdf="http://www.w3.org/1999/02/22-rdf-syntax-ns#"
   xmlns:svg="http://www.w3.org/2000/svg"
   xmlns="http://www.w3.org/2000/svg"
   xmlns:sodipodi="http://sodipodi.sourceforge.net/DTD/sodipodi-0.dtd"
   xmlns:inkscape="http://www.inkscape.org/namespaces/inkscape"
   id="svg2"
   version="1.1"
   inkscape:version="0.91 r13725"
   xml:space="preserve"
   width="374.43631"
   height="131.21225"
   viewBox="0 0 374.43631 131.21225"
   sodipodi:docname="eKodama_Logo_krzywe_poziome.ai"><metadata
     id="metadata8"><rdf:RDF><cc:Work
         rdf:about=""><dc:format>image/svg+xml</dc:format><dc:type
           rdf:resource="http://purl.org/dc/dcmitype/StillImage" /><dc:title></dc:title></cc:Work></rdf:RDF></metadata><defs
     id="defs6"><clipPath
       clipPathUnits="userSpaceOnUse"
       id="clipPath16"><path
         d="m 0,226.771 340.157,0 L 340.157,0 0,0 0,226.771 Z"
         id="path18"
         inkscape:connector-curvature="0" /></clipPath><clipPath
       clipPathUnits="userSpaceOnUse"
       id="clipPath102"><path
         d="m 0,226.771 340.157,0 L 340.157,0 0,0 0,226.771 Z"
         id="path104"
         inkscape:connector-curvature="0" /></clipPath><clipPath
       clipPathUnits="userSpaceOnUse"
       id="clipPath110"><path
         d="m 104.543,174.631 44.787,0 0,-79.3698 -44.787,0 0,79.3698 z"
         id="path112"
         inkscape:connector-curvature="0" /></clipPath></defs><sodipodi:namedview
     pagecolor="#ffffff"
     bordercolor="#666666"
     borderopacity="1"
     objecttolerance="10"
     gridtolerance="10"
     guidetolerance="10"
     inkscape:pageopacity="0"
     inkscape:pageshadow="2"
     inkscape:window-width="1521"
     inkscape:window-height="812"
     id="namedview4"
     showgrid="false"
     showborder="true"
     fit-margin-top="16"
     fit-margin-left="16"
     fit-margin-right="16"
     fit-margin-bottom="16"
     inkscape:zoom="0.83255797"
     inkscape:cx="-24.677881"
     inkscape:cy="38.655377"
     inkscape:window-x="65"
     inkscape:window-y="24"
     inkscape:window-maximized="0"
     inkscape:current-layer="g10" /><g
     id="g10"
     inkscape:groupmode="layer"
     inkscape:label="eKodama_Logo_krzywe_poziome"
     transform="matrix(1.25,0,0,-1.25,-67.317875,234.28875)"><g
       id="g3546"
       transform="matrix(1.58031,0,0,1.58031,-82.248736,-39.866291)"><path
         d="m 160.7427,96.7354 c 0.467,0 0.886,0.119 1.262,0.358 0.375,0.239 0.618,0.513 0.732,0.822 l 0,1.147 -1.445,0 c -0.519,0 -0.933,-0.131 -1.246,-0.391 -0.311,-0.261 -0.467,-0.567 -0.467,-0.919 0,-0.313 0.098,-0.561 0.294,-0.744 0.197,-0.182 0.487,-0.273 0.87,-0.273 m 2.137,-0.948 c -0.043,0.213 -0.076,0.403 -0.102,0.565 -0.023,0.164 -0.037,0.327 -0.041,0.494 -0.24,-0.34 -0.553,-0.625 -0.939,-0.853 -0.385,-0.23 -0.801,-0.343 -1.245,-0.343 -0.736,0 -1.296,0.189 -1.684,0.565 -0.384,0.377 -0.578,0.896 -0.578,1.56 0,0.675 0.274,1.203 0.821,1.584 0.547,0.382 1.288,0.572 2.226,0.572 l 1.399,0 0,0.7 c 0,0.414 -0.126,0.741 -0.379,0.984 -0.253,0.242 -0.611,0.363 -1.073,0.363 -0.414,0 -0.75,-0.106 -1.009,-0.318 -0.26,-0.211 -0.39,-0.464 -0.39,-0.76 l -1.228,0 -0.013,0.038 c -0.027,0.514 0.217,0.984 0.729,1.413 0.511,0.427 1.173,0.64 1.983,0.64 0.802,0 1.448,-0.204 1.935,-0.611 0.489,-0.408 0.733,-0.995 0.733,-1.762 l 0,-3.405 c 0,-0.254 0.012,-0.498 0.039,-0.733 0.026,-0.235 0.075,-0.467 0.143,-0.693 l -1.327,0 z"
         style="fill:#8c8c8c;fill-opacity:1;fill-rule:nonzero;stroke:none"
         id="path22"
         inkscape:connector-curvature="0" /><path
         d="m 172.7002,101.7227 -0.66,0.04 c -0.34,0 -0.626,-0.081 -0.861,-0.242 -0.232,-0.161 -0.412,-0.388 -0.538,-0.68 l 0,-5.053 -1.288,0 0,7.073 1.151,0 0.124,-1.033 c 0.199,0.366 0.447,0.651 0.743,0.856 0.292,0.206 0.632,0.308 1.016,0.308 0.096,0 0.187,-0.008 0.274,-0.024 0.088,-0.015 0.16,-0.031 0.216,-0.048 l -0.177,-1.197 z"
         style="fill:#8c8c8c;fill-opacity:1;fill-rule:nonzero;stroke:none"
         id="path26"
         inkscape:connector-curvature="0" /><path
         d="m 180.1548,96.6631 c 0.428,0 0.803,0.132 1.128,0.395 0.324,0.264 0.486,0.588 0.486,0.972 l 1.157,0 0.013,-0.04 c 0.023,-0.611 -0.248,-1.153 -0.815,-1.627 -0.563,-0.475 -1.22,-0.713 -1.969,-0.713 -1.029,0 -1.814,0.336 -2.36,1.006 -0.546,0.671 -0.817,1.515 -0.817,2.53 l 0,0.275 c 0,1.007 0.273,1.847 0.82,2.52 0.547,0.673 1.333,1.01 2.357,1.01 0.828,0 1.505,-0.244 2.03,-0.732 0.524,-0.488 0.778,-1.088 0.761,-1.798 l -0.013,-0.039 -1.164,0 c 0,0.431 -0.153,0.799 -0.457,1.102 -0.305,0.302 -0.691,0.454 -1.157,0.454 -0.676,0 -1.159,-0.243 -1.447,-0.728 -0.29,-0.485 -0.436,-1.08 -0.436,-1.786 l 0,-0.273 c 0,-0.723 0.144,-1.325 0.432,-1.806 0.286,-0.481 0.771,-0.722 1.451,-0.722"
         style="fill:#8c8c8c;fill-opacity:1;fill-rule:nonzero;stroke:none"
         id="path30"
         inkscape:connector-curvature="0" /><path
         d="m 189.1313,101.9126 c 0.244,0.34 0.544,0.605 0.9,0.793 0.354,0.191 0.747,0.286 1.18,0.286 0.754,0 1.341,-0.227 1.762,-0.681 0.42,-0.453 0.63,-1.149 0.63,-2.091 l 0,-4.432 -1.288,0 0,4.445 c 0,0.585 -0.126,1.016 -0.376,1.294 -0.25,0.279 -0.624,0.419 -1.121,0.419 -0.357,0 -0.681,-0.083 -0.97,-0.251 -0.291,-0.169 -0.53,-0.396 -0.717,-0.684 l 0,-5.223 -1.288,0 0,10.198 1.288,0 0,-4.073 z"
         style="fill:#8c8c8c;fill-opacity:1;fill-rule:nonzero;stroke:none"
         id="path34"
         inkscape:connector-curvature="0" /><path
         inkscape:connector-curvature="0"
         id="path36"
         style="fill:#8c8c8c;fill-opacity:1;fill-rule:nonzero;stroke:none"
         d="m 200.306,95.788 -1.288,0 0,7.073 1.288,0 0,-7.073 z m 0,8.884 -1.288,0 0,1.314 1.288,0 0,-1.314 z" /><path
         d="m 207.4453,104.5669 0,-1.707 1.34,0 0,-0.954 -1.34,0 0,-4.294 c 0,-0.332 0.069,-0.566 0.205,-0.701 0.139,-0.134 0.321,-0.202 0.547,-0.202 0.075,0 0.155,0.009 0.245,0.026 0.089,0.018 0.169,0.04 0.239,0.066 l 0.169,-0.883 c -0.095,-0.078 -0.236,-0.142 -0.42,-0.194 -0.186,-0.05 -0.373,-0.074 -0.56,-0.074 -0.523,0 -0.939,0.158 -1.248,0.475 -0.311,0.315 -0.465,0.81 -0.465,1.487 l 0,4.294 -1.125,0 0,0.954 1.125,0 0,1.707 1.288,0 z"
         style="fill:#8c8c8c;fill-opacity:1;fill-rule:nonzero;stroke:none"
         id="path40"
         inkscape:connector-curvature="0" /><path
         d="m 216.5713,101.9785 c -0.431,0 -0.8,-0.183 -1.105,-0.544 -0.304,-0.364 -0.493,-0.818 -0.562,-1.365 l 0.013,-0.032 3.263,0 0,0.169 c 0,0.503 -0.135,0.924 -0.406,1.263 -0.27,0.339 -0.671,0.509 -1.203,0.509 m 0.196,-6.329 c -0.984,0 -1.767,0.329 -2.351,0.985 -0.579,0.655 -0.871,1.506 -0.871,2.552 l 0,0.288 c 0,1.007 0.299,1.844 0.898,2.512 0.6,0.67 1.308,1.005 2.128,1.005 0.955,0 1.677,-0.288 2.165,-0.863 0.487,-0.576 0.731,-1.343 0.731,-2.301 l 0,-0.805 -4.589,0 -0.02,-0.032 c 0.013,-0.679 0.186,-1.236 0.517,-1.672 0.33,-0.437 0.795,-0.655 1.392,-0.655 0.435,0 0.819,0.063 1.148,0.186 0.328,0.125 0.613,0.295 0.853,0.513 l 0.503,-0.838 c -0.252,-0.25 -0.585,-0.458 -0.999,-0.625 -0.415,-0.166 -0.917,-0.25 -1.505,-0.25"
         style="fill:#8c8c8c;fill-opacity:1;fill-rule:nonzero;stroke:none"
         id="path44"
         inkscape:connector-curvature="0" /><path
         d="m 226.5024,99.0625 -0.836,0 0,-3.275 -1.288,0 0,10.198 1.288,0 0,-5.91 0.823,0 1.936,2.785 1.542,0 -2.419,-3.211 2.766,-3.862 -1.517,0 -2.295,3.275 z"
         style="fill:#8c8c8c;fill-opacity:1;fill-rule:nonzero;stroke:none"
         id="path48"
         inkscape:connector-curvature="0" /><path
         d="m 236.3955,104.5669 0,-1.707 1.34,0 0,-0.954 -1.34,0 0,-4.294 c 0,-0.332 0.069,-0.566 0.205,-0.701 0.139,-0.134 0.32,-0.202 0.547,-0.202 0.074,0 0.155,0.009 0.245,0.026 0.089,0.018 0.169,0.04 0.238,0.066 l 0.17,-0.883 c -0.095,-0.078 -0.237,-0.142 -0.421,-0.194 -0.186,-0.05 -0.372,-0.074 -0.559,-0.074 -0.523,0 -0.939,0.158 -1.249,0.475 -0.31,0.315 -0.464,0.81 -0.464,1.487 l 0,4.294 -1.125,0 0,0.954 1.125,0 0,1.707 1.288,0 z"
         style="fill:#8c8c8c;fill-opacity:1;fill-rule:nonzero;stroke:none"
         id="path52"
         inkscape:connector-curvature="0" /><path
         d="m 247.2744,96.8335 c -0.223,-0.379 -0.507,-0.67 -0.856,-0.876 -0.349,-0.206 -0.752,-0.308 -1.209,-0.308 -0.772,0 -1.373,0.247 -1.805,0.739 -0.431,0.493 -0.647,1.259 -0.647,2.301 l 0,4.171 1.288,0 0,-4.184 c 0,-0.754 0.111,-1.272 0.333,-1.556 0.222,-0.283 0.568,-0.425 1.04,-0.425 0.457,0 0.835,0.094 1.135,0.279 0.297,0.185 0.523,0.447 0.676,0.787 l 0,5.099 1.288,0 0,-7.073 -1.158,0 -0.085,1.046 z"
         style="fill:#8c8c8c;fill-opacity:1;fill-rule:nonzero;stroke:none"
         id="path56"
         inkscape:connector-curvature="0" /><path
         d="m 257.1997,101.7227 -0.66,0.04 c -0.34,0 -0.627,-0.081 -0.861,-0.242 -0.232,-0.161 -0.412,-0.388 -0.539,-0.68 l 0,-5.053 -1.287,0 0,7.073 1.15,0 0.125,-1.033 c 0.199,0.366 0.447,0.651 0.743,0.856 0.292,0.206 0.632,0.308 1.015,0.308 0.096,0 0.187,-0.008 0.275,-0.024 0.087,-0.015 0.16,-0.031 0.215,-0.048 l -0.176,-1.197 z"
         style="fill:#8c8c8c;fill-opacity:1;fill-rule:nonzero;stroke:none"
         id="path60"
         inkscape:connector-curvature="0" /><path
         d="m 264.1104,96.7354 c 0.467,0 0.887,0.119 1.262,0.358 0.376,0.239 0.62,0.513 0.732,0.822 l 0,1.147 -1.445,0 c -0.518,0 -0.933,-0.131 -1.245,-0.391 -0.312,-0.261 -0.468,-0.567 -0.468,-0.919 0,-0.313 0.099,-0.561 0.295,-0.744 0.196,-0.182 0.487,-0.273 0.869,-0.273 m 2.139,-0.948 c -0.044,0.213 -0.078,0.403 -0.102,0.565 -0.024,0.164 -0.039,0.327 -0.043,0.494 -0.239,-0.34 -0.551,-0.625 -0.938,-0.853 -0.384,-0.23 -0.8,-0.343 -1.245,-0.343 -0.737,0 -1.297,0.189 -1.684,0.565 -0.384,0.377 -0.578,0.896 -0.578,1.56 0,0.675 0.273,1.203 0.821,1.584 0.547,0.382 1.288,0.572 2.225,0.572 l 1.399,0 0,0.7 c 0,0.414 -0.126,0.741 -0.379,0.984 -0.252,0.242 -0.611,0.363 -1.072,0.363 -0.414,0 -0.75,-0.106 -1.009,-0.318 -0.261,-0.211 -0.389,-0.464 -0.389,-0.76 l -1.229,0 -0.014,0.038 c -0.026,0.514 0.217,0.984 0.73,1.413 0.511,0.427 1.173,0.64 1.984,0.64 0.801,0 1.447,-0.204 1.935,-0.611 0.486,-0.408 0.731,-0.995 0.731,-1.762 l 0,-3.405 c 0,-0.254 0.013,-0.498 0.04,-0.733 0.026,-0.235 0.074,-0.467 0.143,-0.693 l -1.326,0 z"
         style="fill:#8c8c8c;fill-opacity:1;fill-rule:nonzero;stroke:none"
         id="path64"
         inkscape:connector-curvature="0" /><path
         d="m 164.2983,118.7764 c -0.733,0 -1.36,-0.308 -1.878,-0.926 -0.518,-0.616 -0.837,-1.389 -0.955,-2.321 l 0.021,-0.055 5.546,0 0,0.288 c 0,0.856 -0.23,1.574 -0.689,2.15 -0.459,0.575 -1.141,0.864 -2.045,0.864 m 0.334,-10.758 c -1.675,0 -3.006,0.557 -3.996,1.672 -0.988,1.115 -1.482,2.562 -1.482,4.34 l 0,0.489 c 0,1.712 0.509,3.135 1.527,4.273 1.018,1.137 2.225,1.706 3.617,1.706 1.624,0 2.85,-0.489 3.678,-1.467 0.831,-0.978 1.244,-2.282 1.244,-3.912 l 0,-1.367 -7.799,0 -0.034,-0.056 c 0.022,-1.151 0.315,-2.1 0.878,-2.842 0.562,-0.742 1.352,-1.115 2.367,-1.115 0.741,0 1.391,0.107 1.951,0.318 0.559,0.211 1.042,0.502 1.45,0.872 l 0.857,-1.424 c -0.431,-0.425 -0.999,-0.78 -1.702,-1.062 -0.703,-0.284 -1.556,-0.425 -2.556,-0.425"
         style="fill:#8c8c8c;fill-opacity:1;fill-rule:nonzero;stroke:none"
         id="path68"
         inkscape:connector-curvature="0" /><path
         d="m 178.3936,115.5522 -1.891,0 0,-7.301 -2.188,0 0,16.181 2.188,0 0,-7.156 1.689,0 5.791,7.156 2.423,0 0.034,-0.055 -6.279,-7.769 6.734,-8.302 -0.034,-0.055 -2.611,0 -5.856,7.301 z"
         style="fill:#8c8c8c;fill-opacity:1;fill-rule:nonzero;stroke:none"
         id="path72"
         inkscape:connector-curvature="0" /><path
         d="m 192.1396,114.1367 c 0,-1.274 0.269,-2.323 0.806,-3.153 0.537,-0.828 1.336,-1.244 2.396,-1.244 1.044,0 1.836,0.416 2.377,1.244 0.542,0.83 0.811,1.879 0.811,3.153 l 0,0.244 c 0,1.257 -0.272,2.306 -0.816,3.14 -0.545,0.837 -1.342,1.256 -2.395,1.256 -1.045,0 -1.836,-0.419 -2.373,-1.256 -0.537,-0.834 -0.806,-1.883 -0.806,-3.14 l 0,-0.244 z m -2.189,0.238 c 0,1.779 0.481,3.243 1.445,4.395 0.963,1.152 2.271,1.728 3.923,1.728 1.667,0 2.984,-0.573 3.951,-1.721 0.966,-1.149 1.45,-2.617 1.45,-4.402 l 0,-0.245 c 0,-1.793 -0.481,-3.26 -1.445,-4.401 -0.963,-1.14 -2.275,-1.711 -3.933,-1.711 -1.66,0 -2.974,0.573 -3.941,1.718 -0.967,1.143 -1.45,2.609 -1.45,4.394 l 0,0.245 z"
         style="fill:#8c8c8c;fill-opacity:1;fill-rule:nonzero;stroke:none"
         id="path76"
         inkscape:connector-curvature="0" /><path
         d="m 207.3105,113.8076 c 0,-1.214 0.247,-2.188 0.744,-2.917 0.496,-0.729 1.267,-1.094 2.312,-1.094 0.652,0 1.2,0.148 1.644,0.445 0.446,0.295 0.808,0.712 1.089,1.245 l 0,5.611 c -0.281,0.497 -0.645,0.89 -1.094,1.183 -0.448,0.293 -0.987,0.44 -1.617,0.44 -1.053,0 -1.828,-0.434 -2.329,-1.302 -0.499,-0.865 -0.749,-1.992 -0.749,-3.377 l 0,-0.234 z m -2.189,0.234 c 0,1.934 0.412,3.493 1.238,4.679 0.826,1.186 1.984,1.777 3.473,1.777 0.703,0 1.329,-0.129 1.873,-0.387 0.544,-0.26 1.009,-0.639 1.394,-1.136 l 0,6.614 2.189,0 0,-17.337 -1.789,0 -0.256,1.477 c -0.391,-0.562 -0.873,-0.987 -1.443,-1.277 -0.572,-0.29 -1.234,-0.434 -1.99,-0.434 -1.467,0 -2.615,0.532 -3.445,1.595 -0.831,1.062 -1.244,2.462 -1.244,4.195 l 0,0.234 z"
         style="fill:#8c8c8c;fill-opacity:1;fill-rule:nonzero;stroke:none"
         id="path80"
         inkscape:connector-curvature="0" /><path
         d="m 224.5361,109.8618 c 0.793,0 1.51,0.204 2.146,0.611 0.637,0.405 1.052,0.871 1.245,1.396 l 0,1.95 -2.457,0 c -0.881,0 -1.588,-0.222 -2.117,-0.665 -0.529,-0.443 -0.794,-0.964 -0.794,-1.563 0,-0.531 0.167,-0.952 0.5,-1.263 0.333,-0.31 0.826,-0.466 1.477,-0.466 m 3.635,-1.61 c -0.075,0.362 -0.132,0.684 -0.172,0.96 -0.041,0.279 -0.065,0.559 -0.072,0.84 -0.408,-0.578 -0.939,-1.062 -1.595,-1.45 -0.655,-0.39 -1.361,-0.584 -2.117,-0.584 -1.253,0 -2.206,0.321 -2.862,0.962 -0.655,0.641 -0.983,1.525 -0.983,2.65 0,1.148 0.465,2.046 1.395,2.695 0.929,0.648 2.191,0.973 3.784,0.973 l 2.378,0 0,1.188 c 0,0.705 -0.215,1.262 -0.645,1.674 -0.431,0.41 -1.037,0.617 -1.823,0.617 -0.703,0 -1.276,-0.181 -1.716,-0.54 -0.441,-0.36 -0.663,-0.792 -0.663,-1.295 l -2.088,0 -0.022,0.067 c -0.045,0.875 0.368,1.675 1.239,2.4 0.87,0.726 1.995,1.089 3.373,1.089 1.363,0 2.46,-0.346 3.29,-1.039 0.829,-0.693 1.245,-1.691 1.245,-2.993 l 0,-5.792 c 0,-0.43 0.021,-0.844 0.065,-1.244 0.044,-0.401 0.126,-0.793 0.246,-1.178 l -2.257,0 z"
         style="fill:#8c8c8c;fill-opacity:1;fill-rule:nonzero;stroke:none"
         id="path84"
         inkscape:connector-curvature="0" /><path
         d="m 237.4766,120.2764 0.154,-1.578 c 0.393,0.569 0.891,1.013 1.496,1.328 0.604,0.315 1.305,0.472 2.105,0.472 0.801,0 1.487,-0.185 2.062,-0.555 0.574,-0.37 1.005,-0.927 1.295,-1.668 0.377,0.682 0.878,1.223 1.5,1.623 0.622,0.399 1.348,0.6 2.179,0.6 1.222,0 2.189,-0.421 2.901,-1.262 0.71,-0.84 1.066,-2.105 1.066,-3.794 l 0,-7.191 -2.189,0 0,7.213 c 0,1.185 -0.204,2.024 -0.611,2.517 -0.408,0.493 -1.016,0.739 -1.823,0.739 -0.749,0 -1.354,-0.259 -1.817,-0.778 -0.462,-0.519 -0.736,-1.173 -0.817,-1.967 l 0,-0.088 0,-7.636 -2.201,0 0,7.213 c 0,1.126 -0.209,1.95 -0.627,2.473 -0.419,0.522 -1.022,0.783 -1.807,0.783 -0.667,0 -1.214,-0.138 -1.644,-0.412 -0.43,-0.273 -0.76,-0.659 -0.989,-1.156 l 0,-8.901 -2.189,0 0,12.025 1.956,0 z"
         style="fill:#8c8c8c;fill-opacity:1;fill-rule:nonzero;stroke:none"
         id="path88"
         inkscape:connector-curvature="0" /><path
         d="m 261.3896,109.8618 c 0.794,0 1.509,0.204 2.146,0.611 0.637,0.405 1.053,0.871 1.246,1.396 l 0,1.95 -2.458,0 c -0.881,0 -1.587,-0.222 -2.117,-0.665 -0.53,-0.443 -0.794,-0.964 -0.794,-1.563 0,-0.531 0.166,-0.952 0.5,-1.263 0.333,-0.31 0.827,-0.466 1.477,-0.466 m 3.636,-1.61 c -0.075,0.362 -0.133,0.684 -0.174,0.96 -0.04,0.279 -0.064,0.559 -0.07,0.84 -0.41,-0.578 -0.94,-1.062 -1.597,-1.45 -0.654,-0.39 -1.36,-0.584 -2.116,-0.584 -1.253,0 -2.206,0.321 -2.863,0.962 -0.654,0.641 -0.983,1.525 -0.983,2.65 0,1.148 0.466,2.046 1.396,2.695 0.929,0.648 2.19,0.973 3.784,0.973 l 2.379,0 0,1.188 c 0,0.705 -0.215,1.262 -0.646,1.674 -0.43,0.41 -1.036,0.617 -1.823,0.617 -0.703,0 -1.276,-0.181 -1.716,-0.54 -0.44,-0.36 -0.661,-0.792 -0.661,-1.295 l -2.09,0 -0.022,0.067 c -0.044,0.875 0.368,1.675 1.239,2.4 0.871,0.726 1.995,1.089 3.374,1.089 1.361,0 2.459,-0.346 3.289,-1.039 0.829,-0.693 1.245,-1.691 1.245,-2.993 l 0,-5.792 c 0,-0.43 0.02,-0.844 0.065,-1.244 0.044,-0.401 0.127,-0.793 0.246,-1.178 l -2.256,0 z"
         style="fill:#8c8c8c;fill-opacity:1;fill-rule:nonzero;stroke:none"
         id="path92"
         inkscape:connector-curvature="0" /></g><g
       id="g3567"><path
         d="m 112.1533,164.7837 c -0.997,0 -1.805,-0.809 -1.805,-1.801 0,-0.996 0.808,-1.803 1.805,-1.803 0.995,0 1.801,0.807 1.801,1.803 0,0.992 -0.806,1.801 -1.801,1.801 m -12.866,-1.801 c -0.997,0 -1.805,-0.808 -1.805,-1.803 0,-0.996 0.808,-1.802 1.805,-1.802 0.995,0 1.801,0.806 1.801,1.802 0,0.995 -0.806,1.803 -1.801,1.803 m 26.22,-16.235 c -0.995,0 -1.802,-0.808 -1.802,-1.801 0,-0.996 0.807,-1.803 1.802,-1.803 0.997,0 1.803,0.807 1.803,1.803 0,0.993 -0.806,1.801 -1.803,1.801 m 6.487,0.771 c -0.995,0 -1.803,-0.808 -1.803,-1.801 0,-0.996 0.808,-1.803 1.803,-1.803 0.996,0 1.803,0.807 1.803,1.803 0,0.993 -0.807,1.801 -1.803,1.801 m -3.893,5.085 c -0.995,0 -1.802,-0.808 -1.802,-1.801 0,-0.996 0.807,-1.803 1.802,-1.803 0.996,0 1.803,0.807 1.803,1.803 0,0.993 -0.807,1.801 -1.803,1.801 m -44.172,0 c -0.996,0 -1.803,-0.808 -1.803,-1.801 0,-0.996 0.807,-1.803 1.803,-1.803 0.997,0 1.802,0.807 1.802,1.803 0,0.993 -0.805,1.801 -1.802,1.801 m 9.449,-26.515 c -0.997,0 -1.805,-0.809 -1.805,-1.801 0,-0.996 0.808,-1.805 1.805,-1.805 0.995,0 1.8,0.809 1.8,1.805 0,0.992 -0.805,1.801 -1.8,1.801 m 25.931,-0.076 c -0.996,0 -1.803,-0.807 -1.803,-1.802 0,-0.996 0.807,-1.803 1.803,-1.803 0.996,0 1.802,0.807 1.802,1.803 0,0.995 -0.806,1.802 -1.802,1.802 m 2.802,34.583 c -0.996,0 -1.803,-0.809 -1.803,-1.801 0,-0.998 0.807,-1.805 1.803,-1.805 0.997,0 1.803,0.807 1.803,1.805 0,0.992 -0.806,1.801 -1.803,1.801 m -4.611,-13.077 c -0.996,0 -1.803,-0.807 -1.803,-1.8 0,-0.997 0.807,-1.804 1.803,-1.804 0.996,0 1.802,0.807 1.802,1.804 0,0.993 -0.806,1.8 -1.802,1.8 m -21.53,1.272 c -0.996,0 -1.802,-0.81 -1.802,-1.803 0,-0.996 0.806,-1.802 1.802,-1.802 0.995,0 1.803,0.806 1.803,1.802 0,0.993 -0.808,1.803 -1.803,1.803 m -2.079,10.004 c -0.998,0 -1.804,-0.81 -1.804,-1.803 0,-0.996 0.806,-1.805 1.804,-1.805 0.995,0 1.801,0.809 1.801,1.805 0,0.993 -0.806,1.803 -1.801,1.803 m 11.881,-52.341 c -1.721,0 -3.118,-1.399 -3.118,-3.121 0,-1.722 1.397,-3.117 3.118,-3.117 1.722,0 3.118,1.395 3.118,3.117 0,1.722 -1.396,3.121 -3.118,3.121 m 0,7.741 c -1.721,0 -3.118,-1.394 -3.118,-3.117 0,-1.723 1.397,-3.118 3.118,-3.118 1.722,0 3.118,1.395 3.118,3.118 0,1.723 -1.396,3.117 -3.118,3.117 m 26.282,27.158 c -1.43,0 -2.594,-1.161 -2.594,-2.596 0,-1.431 1.164,-2.595 2.594,-2.595 1.435,0 2.597,1.164 2.597,2.595 0,1.435 -1.162,2.596 -2.597,2.596 m -6.547,-6.837 c -1.434,0 -2.593,-1.161 -2.593,-2.592 0,-1.434 1.159,-2.594 2.593,-2.594 1.432,0 2.594,1.16 2.594,2.594 0,1.431 -1.162,2.592 -2.594,2.592 m -29.539,0 c -1.431,0 -2.59,-1.161 -2.59,-2.592 0,-1.434 1.159,-2.594 2.59,-2.594 1.435,0 2.597,1.16 2.597,2.594 0,1.431 -1.162,2.592 -2.597,2.592 m 10.379,26.664 c -1.434,0 -2.595,-1.162 -2.595,-2.595 0,-1.432 1.161,-2.593 2.595,-2.593 1.434,0 2.594,1.161 2.594,2.593 0,1.433 -1.16,2.595 -2.594,2.595 m -26.815,-17.963 c -1.433,0 -2.595,-1.162 -2.595,-2.594 0,-1.431 1.162,-2.594 2.595,-2.594 1.433,0 2.593,1.163 2.593,2.594 0,1.432 -1.16,2.594 -2.593,2.594 m 8.53,-8.698 c -1.431,0 -2.594,-1.164 -2.594,-2.595 0,-1.434 1.163,-2.594 2.594,-2.594 1.435,0 2.597,1.16 2.597,2.594 0,1.431 -1.162,2.595 -2.597,2.595 m -0.686,9.428 c -1.431,0 -2.594,-1.164 -2.594,-2.596 0,-1.434 1.163,-2.595 2.594,-2.595 1.434,0 2.596,1.161 2.596,2.595 0,1.432 -1.162,2.596 -2.596,2.596 m 10.108,-0.73 c -1.435,0 -2.595,-1.162 -2.595,-2.594 0,-1.431 1.16,-2.594 2.595,-2.594 1.431,0 2.593,1.163 2.593,2.594 0,1.432 -1.162,2.594 -2.593,2.594 m -6.825,8.959 c -1.432,0 -2.597,-1.161 -2.597,-2.594 0,-1.432 1.165,-2.594 2.597,-2.594 1.433,0 2.593,1.162 2.593,2.594 0,1.433 -1.16,2.594 -2.593,2.594 m 10.499,2.595 c -1.434,0 -2.593,-1.163 -2.593,-2.595 0,-1.433 1.159,-2.594 2.593,-2.594 1.433,0 2.594,1.161 2.594,2.594 0,1.432 -1.161,2.595 -2.594,2.595 m 19.953,-12.468 c -1.434,0 -2.597,-1.165 -2.597,-2.596 0,-1.435 1.163,-2.596 2.597,-2.596 1.434,0 2.594,1.161 2.594,2.596 0,1.431 -1.16,2.596 -2.594,2.596 m -11.431,-6.786 c -1.43,0 -2.594,-1.16 -2.594,-2.592 0,-1.434 1.164,-2.595 2.594,-2.595 1.435,0 2.595,1.161 2.595,2.595 0,1.432 -1.16,2.592 -2.595,2.592 m 3.162,8.427 c -1.434,0 -2.594,-1.161 -2.594,-2.593 0,-1.433 1.16,-2.593 2.594,-2.593 1.432,0 2.593,1.16 2.593,2.593 0,1.432 -1.161,2.593 -2.593,2.593 m 8.269,9.451 c -1.434,0 -2.597,-1.162 -2.597,-2.592 0,-1.433 1.163,-2.594 2.597,-2.594 1.434,0 2.594,1.161 2.594,2.594 0,1.43 -1.16,2.592 -2.594,2.592 m -8.958,2.597 c -1.435,0 -2.597,-1.163 -2.597,-2.597 0,-1.43 1.162,-2.592 2.597,-2.592 1.431,0 2.593,1.162 2.593,2.592 0,1.434 -1.162,2.597 -2.593,2.597 m -6.485,-8.451 c -1.432,0 -2.593,-1.162 -2.593,-2.597 0,-1.431 1.161,-2.593 2.593,-2.593 1.434,0 2.595,1.162 2.595,2.593 0,1.435 -1.161,2.597 -2.595,2.597 m -1.916,-6.918 c -1.432,0 -2.594,-1.162 -2.594,-2.595 0,-1.432 1.162,-2.593 2.594,-2.593 1.434,0 2.595,1.161 2.595,2.593 0,1.433 -1.161,2.595 -2.595,2.595 m -2.594,-11.293 c -1.434,0 -2.593,-1.162 -2.593,-2.597 0,-1.43 1.159,-2.594 2.593,-2.594 1.433,0 2.594,1.164 2.594,2.594 0,1.435 -1.161,2.597 -2.594,2.597 m 15.539,3.594 c -1.433,0 -2.595,-1.161 -2.595,-2.594 0,-1.434 1.162,-2.597 2.595,-2.597 1.435,0 2.595,1.163 2.595,2.597 0,1.433 -1.16,2.594 -2.595,2.594 m -5.449,-5.45 c -1.434,0 -2.595,-1.162 -2.595,-2.593 0,-1.433 1.161,-2.597 2.595,-2.597 1.434,0 2.594,1.164 2.594,2.597 0,1.431 -1.16,2.593 -2.594,2.593 m -5.476,-5.404 c -1.721,0 -3.118,-1.393 -3.118,-3.117 0,-1.723 1.397,-3.118 3.118,-3.118 1.722,0 3.118,1.395 3.118,3.118 0,1.724 -1.396,3.117 -3.118,3.117 m 39.118,12.699 c 0,-21.605 -17.513,-39.119 -39.118,-39.119 -21.604,0 -39.118,17.514 -39.118,39.119 0,21.605 17.514,39.118 39.118,39.118 21.605,0 39.118,-17.513 39.118,-39.118"
         style="fill:#bbd647;fill-opacity:1;fill-rule:nonzero;stroke:none"
         id="path96"
         inkscape:connector-curvature="0" /><g
         id="g98"><g
           clip-path="url(#clipPath102)"
           id="g100"><g
             id="g106"><g
               id="g108" /><g
               id="g114"><g
                 style="opacity:0.30000299"
                 id="g116"
                 clip-path="url(#clipPath110)"><g
                   id="g118"
                   transform="translate(149.3301,134.9458)"><path
                     inkscape:connector-curvature="0"
                     id="path120"
                     style="fill:#6b651d;fill-opacity:1;fill-rule:nonzero;stroke:none"
                     d="m 0,0 c 0,-21.916 -14.179,-39.685 -31.669,-39.685 -17.491,0 -17.491,79.371 0,79.371 C -14.179,39.686 0,21.917 0,0" /></g></g></g></g></g></g></g></g></svg>